<svg xmlns="http://www.w3.org/2000/svg" width="2649.11" height="327.066" viewBox="0 0 2649.11 327.066">
  <g id="bottompeoples" transform="translate(555.498 -783.434)">
    <path id="Path_13874" data-name="Path 13874" d="M-414.761,1536.405c3.026-9.84,6.552-19.566,8.86-29.572,1.1-4.775,3.622-6.482,7.574-7.46,9.342-2.311,18.651-4.794,28.068-6.751,9.823-2.04,19.428-10.742,16.39-23.72a9.236,9.236,0,0,0-2.349-4.517c-6.831-6.31-8.565-15.273-4.7-23.3.778-1.616.146-3.993-.069-5.994a31.311,31.311,0,0,1,30.4-34.783c16.115-.384,30.892,19.133,28.005,37.029-.29,1.8-.773,3.57-1.2,5.346-3.307,13.833-2.406,17.841,9.513,25.366,7.759,4.9,11.167,12.509,15.866,19.443,1,1.479,1.289,3.866,2.6,4.618,2.433,1.394,5.38,1.889,8.112,2.759-.262-2.674.494-6.26-.951-7.872-8.975-10.018-3.384-21.289-2.473-31.691.666-7.6,11.274-12.179,20.538-11.206,8.407.883,15.568,7.1,15.582,15.514.015,9.468,3.031,19.353-4.479,28.24-4.072,4.818-.277,10.626,6.7,12.733,6.854,2.071,13.72,4.128,20.464,6.518a18.305,18.305,0,0,1,6.572,4.1,55.68,55.68,0,0,0,15.941,11.451c4.544,2.12,7.273,8.132,10.81,12.409,1.744,2.108,4.546,6.269,5.056,6,3.96-2.056,9.481-4.261,10.707-7.758,2.424-6.912.506-14-5.58-19.352-1.85-1.628-4.038-4.122-4.12-6.294-.363-9.564-1.186-19.356.4-28.683,1.687-9.916,11.943-15.424,22.873-14.489,9.716.83,18.647,8.745,19.659,18.184.74,6.912.677,13.92.76,20.889a11.1,11.1,0,0,1-1.242,5.252c-7.13,13.006-.649,25.713,14.023,25.817,10.03.072,16.3,5.411,22.522,11.883,7.349,7.641,19.74,7.253,24.249-1.259,1.587-3,1.809-8.627,0-11.138-4.645-6.442-6.883-12.4-3.315-19.989.768-1.633.043-4-.106-6.025-1.008-13.679,7.463-24.711,19.913-26.384,11.144-1.5,25.522,5.325,27.014,21.624.454,4.957,2.369,4.128,5.46,2.572,6.988-3.518,14.343-6.436,20.861-10.661,1.473-.955,1.357-6.984-.113-9.414-6.465-10.681-4.614-29.032,3.951-37.368,6.017-5.856,13.476-5.608,19.34-2.679,4.752,2.374,9.974,8.616,10.5,13.612.969,9.26,3.651,19.347-4.125,28.163-4.083,4.629-.339,10.843,6.353,13.063,3.6,1.193,6.99,3.454,10.645,3.936,20.015,2.64,27.813,19.828,39.431,32.491,1.461,1.592,3.182,2.945,4.782,4.409.447-2.231,1.289-4.465,1.265-6.691-.068-6.521-.661-13.037-.722-19.558-.116-12.51,6.29-21.084,17-26.681,5.94-3.1,26.483,4.262,28.489,10.747a248.94,248.94,0,0,1,7.279,30.179c1.383,7.829.186,16.229,6.482,22.624.51.518,1.083,1.554.9,2.092-3.661,10.448,6.958,12.393,10.954,18.221.767,1.119,3.241.961,4.812,1.655,3.578,1.58,8.4,2.41,10.334,5.2,3.569,5.154,5.716,1.866,6.062-.789.548-4.2.79-9.682-1.422-12.769-8.052-11.238-5.839-23.434-3.622-35.108.746-3.928,7.231-7.5,11.825-9.71,3.208-1.545,7.69-.862,11.551-.543,11.032.912,15.7,4.949,15.474,16.432-.25,12.516-2.385,25.013-4.061,37.47-.488,3.625-.9,6.279,3.858,6.277a7.489,7.489,0,0,1,1.533.305c18.729,4.05,19.461,3.748,22.912-14.478,1.739-9.183,4.165-17.484,13.431-22.064,1.537-.76,2.251-3.384,3.1-5.258.4-.885-.184-2.565.365-2.985,11.906-9.109,4.208-22.749,7.877-33.736,2.864-8.577,4.784-17.544,8.4-25.776,3.838-8.741,16.99-9.788,21.72-1.511,4.406,7.71,7.191,16.508,9.636,25.127,1.827,6.44,1.327,13.529,3.041,20.017a154.727,154.727,0,0,0,8.608,23.937c.99,2.2,4.959,3.046,7.561,4.513,1.087-2.054,3.017-4.07,3.111-6.17.351-7.807.371-15.654.013-23.464-.6-13.066,3.5-23.429,15.668-29.648.436-.223.68-.837,1.119-1.042,6.5-3.032,27.378,4.978,29.357,11.976,2.95,10.437,4.959,21.147,7.183,31.78.8,3.8.732,7.79,1.621,11.561,2.06,8.743,5.342,11.217,13.8,9.956a102.912,102.912,0,0,0,18.947-4.24c6.88-2.419,9-9.474,4.721-15.157-4.98-6.622-8.2-12.93-3.166-21.067,1.024-1.655.091-4.581-.085-6.911-.714-9.493,3.1-16.741,11.22-21.428,8.748-5.048,17.943-4.682,25.677,1.475,6.978,5.555,12.2,12.636,9.521,22.953-1.147,4.408.075,9.426-1.034,13.852-1.115,4.448-2.981,9.226-5.963,12.57-4.841,5.431-5.126,13.743,1.228,17.312,6.9,3.877,14.125,8.389,21.656,9.453,3.78.535,9.022-5.516,12.759-9.4,4.489-4.665,3.453-10.753-.255-15.043-12.541-14.508-9.473-30.667-4.845-46.469,1.31-4.471,7.213-9.806,11.757-10.634,8.1-1.476,16.861-.419,25.189.721,6.19.848,8.86,6.346,9.364,12.077,1.595,18.123,2.579,36.36-3.3,53.931-1.982,5.926-.674,7.623,4.981,7.81,5.621.187,12.663,2.762,16.387.266,2.865-1.921,1.249-10.133,2.159-15.456,2.056-12.026,4.425-24,6.72-35.981.241-1.256.626-3.368,1.306-3.526,10.715-2.493,10.521-13.686,16.087-20.245A14.866,14.866,0,0,0,581.5,1470.3c-1.551-14.724,1.886-18.415,7.521-31.67a12.691,12.691,0,0,1,13.965-7.955c7.713.982,13.147,5.5,15.094,12.913,2.7,10.29,2.665,10.756,5.2,21.1,2.323,9.468,6.8,18.884,9.678,28.2a5.574,5.574,0,0,0,3.491,3.365c10.67,1.732,12.068,10.245,13.6,18.451a101.782,101.782,0,0,1,1.54,15.564c.185,6.3.513,11.991,8.441,13.631,1.163.24,2.309,3.677,2.358,5.661.241,9.915,1.69,20.163-.261,29.684-2.808,13.7,2.4,82.306.566,95.692H69.153c1.285-5.836,2.082-67.322,4.007-72.938,1.568-4.572,4.373-8.748,6.836-12.978,3.551-6.1,7.343-12.06,10.871-18.172.37-.64-.339-1.9-.548-2.878a12.545,12.545,0,0,0-3.013,1.8c-8.9,9.575-17.692,19.247-26.589,28.823-3.146,3.388-5.965,8.277-9.867,9.5-7.054,2.214-6.427,61.723-5.188,66.838q-226.752,0-453.5.167c-6.136.009-7.138-1.671-7.063-7.329C-414.572,1642.479-414.761,1561.7-414.761,1536.405ZM47.32,1583.316c.052.338.242,1.583.433,2.828,1.181-.314,2.823-.238,3.471-1,5.523-6.523,11.428-12.835,16.038-19.974,2.547-3.944,4.47-9.887-3.914-11.206-1.128-.178-2.222-1.353-3.085-2.293-4.364-4.754-5.812-1.877-6.743,2.5C51.517,1563.575,49.517,1572.984,47.32,1583.316Zm-344.739-101.04c-2.066-3.063-3.76-5.572-5.453-8.081l-6.381,7.16,7.349,6.236Zm935.906,106.1,3.386,6.984c.918-1.668,2.883-3.61,2.534-4.948-.7-2.668-2.66-5-4.1-7.478Zm-945.911-93.665-5.632-6.9-2.932,2.514c1.857,1.615,3.655,3.308,5.618,4.782C-309.951,1495.425-308.934,1494.943-307.424,1494.709Z" transform="translate(1430.482 -565.098)"/>
    <path id="Path_13881" data-name="Path 13881" d="M-414.761,1536.405c3.026-9.84,6.552-19.566,8.86-29.572,1.1-4.775,3.622-6.482,7.574-7.46,9.342-2.311,18.651-4.794,28.068-6.751,9.823-2.04,19.428-10.742,16.39-23.72a9.236,9.236,0,0,0-2.349-4.517c-6.831-6.31-8.565-15.273-4.7-23.3.778-1.616.146-3.993-.069-5.994a31.311,31.311,0,0,1,30.4-34.783c16.115-.384,30.892,19.133,28.005,37.029-.29,1.8-.773,3.57-1.2,5.346-3.307,13.833-2.406,17.841,9.513,25.366,7.759,4.9,11.167,12.509,15.866,19.443,1,1.479,1.289,3.866,2.6,4.618,2.433,1.394,5.38,1.889,8.112,2.759-.262-2.674.494-6.26-.951-7.872-8.975-10.018-3.384-21.289-2.473-31.691.666-7.6,11.274-12.179,20.538-11.206,8.407.883,15.568,7.1,15.582,15.514.015,9.468,3.031,19.353-4.479,28.24-4.072,4.818-.277,10.626,6.7,12.733,6.854,2.071,13.72,4.128,20.464,6.518a18.305,18.305,0,0,1,6.572,4.1,55.68,55.68,0,0,0,15.941,11.451c4.544,2.12,7.273,8.132,10.81,12.409,1.744,2.108,4.546,6.269,5.056,6,3.96-2.056,9.481-4.261,10.707-7.758,2.424-6.912.506-14-5.58-19.352-1.85-1.628-4.038-4.122-4.12-6.294-.363-9.564-1.186-19.356.4-28.683,1.687-9.916,11.943-15.424,22.873-14.489,9.716.83,18.647,8.745,19.659,18.184.74,6.912.677,13.92.76,20.889a11.1,11.1,0,0,1-1.242,5.252c-7.13,13.006-.649,25.713,14.023,25.817,10.03.072,16.3,5.411,22.522,11.883,7.349,7.641,19.74,7.253,24.249-1.259,1.587-3,1.809-8.627,0-11.138-4.645-6.442-6.883-12.4-3.315-19.989.768-1.633.043-4-.106-6.025-1.008-13.679,7.463-24.711,19.913-26.384,11.144-1.5,25.522,5.325,27.014,21.624.454,4.957,2.369,4.128,5.46,2.572,6.988-3.518,14.343-6.436,20.861-10.661,1.473-.955,1.357-6.984-.113-9.414-6.465-10.681-4.614-29.032,3.951-37.368,6.017-5.856,13.476-5.608,19.34-2.679,4.752,2.374,9.974,8.616,10.5,13.612.969,9.26,3.651,19.347-4.125,28.163-4.083,4.629-.339,10.843,6.353,13.063,3.6,1.193,6.99,3.454,10.645,3.936,20.015,2.64,27.813,19.828,39.431,32.491,1.461,1.592,3.182,2.945,4.782,4.409.447-2.231,1.289-4.465,1.265-6.691-.068-6.521-.661-13.037-.722-19.558-.116-12.51,6.29-21.084,17-26.681,5.94-3.1,26.483,4.262,28.489,10.747a248.94,248.94,0,0,1,7.279,30.179c1.383,7.829.186,16.229,6.482,22.624.51.518,1.083,1.554.9,2.092-3.661,10.448,6.958,12.393,10.954,18.221.767,1.119,3.241.961,4.812,1.655,3.578,1.58,8.4,2.41,10.334,5.2,3.569,5.154,5.716,1.866,6.062-.789.548-4.2.79-9.682-1.422-12.769-8.052-11.238-5.839-23.434-3.622-35.108.746-3.928,7.231-7.5,11.825-9.71,3.208-1.545,7.69-.862,11.551-.543,11.032.912,15.7,4.949,15.474,16.432-.25,12.516-2.385,25.013-4.061,37.47-.488,3.625-.9,6.279,3.858,6.277a7.489,7.489,0,0,1,1.533.305c18.729,4.05,19.461,3.748,22.912-14.478,1.739-9.183,4.165-17.484,13.431-22.064,1.537-.76,2.251-3.384,3.1-5.258.4-.885-.184-2.565.365-2.985,11.906-9.109,4.208-22.749,7.877-33.736,2.864-8.577,4.784-17.544,8.4-25.776,3.838-8.741,16.99-9.788,21.72-1.511,4.406,7.71,7.191,16.508,9.636,25.127,1.827,6.44,1.327,13.529,3.041,20.017a154.727,154.727,0,0,0,8.608,23.937c.99,2.2,4.959,3.046,7.561,4.513,1.087-2.054,3.017-4.07,3.111-6.17.351-7.807.371-15.654.013-23.464-.6-13.066,3.5-23.429,15.668-29.648.436-.223.68-.837,1.119-1.042,6.5-3.032,27.378,4.978,29.357,11.976,2.95,10.437,4.959,21.147,7.183,31.78.8,3.8.732,7.79,1.621,11.561,2.06,8.743,5.342,11.217,13.8,9.956a102.912,102.912,0,0,0,18.947-4.24c6.88-2.419,9-9.474,4.721-15.157-4.98-6.622-8.2-12.93-3.166-21.067,1.024-1.655.091-4.581-.085-6.911-.714-9.493,3.1-16.741,11.22-21.428,8.748-5.048,17.943-4.682,25.677,1.475,6.978,5.555,12.2,12.636,9.521,22.953-1.147,4.408.075,9.426-1.034,13.852-1.115,4.448-2.981,9.226-5.963,12.57-4.841,5.431-5.126,13.743,1.228,17.312,6.9,3.877,14.125,8.389,21.656,9.453,3.78.535,9.022-5.516,12.759-9.4,4.489-4.665,3.453-10.753-.255-15.043-12.541-14.508-9.473-30.667-4.845-46.469,1.31-4.471,7.213-9.806,11.757-10.634,8.1-1.476,16.861-.419,25.189.721,6.19.848,8.86,6.346,9.364,12.077,1.595,18.123,2.579,36.36-3.3,53.931-1.982,5.926-.674,7.623,4.981,7.81,5.621.187,12.663,2.762,16.387.266,2.865-1.921,1.249-10.133,2.159-15.456,2.056-12.026,4.425-24,6.72-35.981.241-1.256.626-3.368,1.306-3.526,10.715-2.493,10.521-13.686,16.087-20.245A14.866,14.866,0,0,0,581.5,1470.3c-1.551-14.724,1.886-18.415,7.521-31.67a12.691,12.691,0,0,1,13.965-7.955c7.713.982,13.147,5.5,15.094,12.913,2.7,10.29,2.665,10.756,5.2,21.1,2.323,9.468,6.8,18.884,9.678,28.2a5.574,5.574,0,0,0,3.491,3.365c10.67,1.732,12.068,10.245,13.6,18.451a101.782,101.782,0,0,1,1.54,15.564c.185,6.3.513,11.991,8.441,13.631,1.163.24,2.309,3.677,2.358,5.661.241,9.915,1.69,20.163-.261,29.684-2.808,13.7,2.4,82.306.566,95.692H69.153c1.285-5.836,2.082-67.322,4.007-72.938,1.568-4.572,4.373-8.748,6.836-12.978,3.551-6.1,7.343-12.06,10.871-18.172.37-.64-.339-1.9-.548-2.878a12.545,12.545,0,0,0-3.013,1.8c-8.9,9.575-17.692,19.247-26.589,28.823-3.146,3.388-5.965,8.277-9.867,9.5-7.054,2.214-6.427,61.723-5.188,66.838q-226.752,0-453.5.167c-6.136.009-7.138-1.671-7.063-7.329C-414.572,1642.479-414.761,1561.7-414.761,1536.405ZM47.32,1583.316c.052.338.242,1.583.433,2.828,1.181-.314,2.823-.238,3.471-1,5.523-6.523,11.428-12.835,16.038-19.974,2.547-3.944,4.47-9.887-3.914-11.206-1.128-.178-2.222-1.353-3.085-2.293-4.364-4.754-5.812-1.877-6.743,2.5C51.517,1563.575,49.517,1572.984,47.32,1583.316Zm-344.739-101.04c-2.066-3.063-3.76-5.572-5.453-8.081l-6.381,7.16,7.349,6.236Zm935.906,106.1,3.386,6.984c.918-1.668,2.883-3.61,2.534-4.948-.7-2.668-2.66-5-4.1-7.478Zm-945.911-93.665-5.632-6.9-2.932,2.514c1.857,1.615,3.655,3.308,5.618,4.782C-309.951,1495.425-308.934,1494.943-307.424,1494.709Z" transform="translate(1266.482 -565.098)"/>
    <path id="Path_13882" data-name="Path 13882" d="M-414.761,1536.405c3.026-9.84,6.552-19.566,8.86-29.572,1.1-4.775,3.622-6.482,7.574-7.46,9.342-2.311,18.651-4.794,28.068-6.751,9.823-2.04,19.428-10.742,16.39-23.72a9.236,9.236,0,0,0-2.349-4.517c-6.831-6.31-8.565-15.273-4.7-23.3.778-1.616.146-3.993-.069-5.994a31.311,31.311,0,0,1,30.4-34.783c16.115-.384,30.892,19.133,28.005,37.029-.29,1.8-.773,3.57-1.2,5.346-3.307,13.833-2.406,17.841,9.513,25.366,7.759,4.9,11.167,12.509,15.866,19.443,1,1.479,1.289,3.866,2.6,4.618,2.433,1.394,5.38,1.889,8.112,2.759-.262-2.674.494-6.26-.951-7.872-8.975-10.018-3.384-21.289-2.473-31.691.666-7.6,11.274-12.179,20.538-11.206,8.407.883,15.568,7.1,15.582,15.514.015,9.468,3.031,19.353-4.479,28.24-4.072,4.818-.277,10.626,6.7,12.733,6.854,2.071,13.72,4.128,20.464,6.518a18.305,18.305,0,0,1,6.572,4.1,55.68,55.68,0,0,0,15.941,11.451c4.544,2.12,7.273,8.132,10.81,12.409,1.744,2.108,4.546,6.269,5.056,6,3.96-2.056,9.481-4.261,10.707-7.758,2.424-6.912.506-14-5.58-19.352-1.85-1.628-4.038-4.122-4.12-6.294-.363-9.564-1.186-19.356.4-28.683,1.687-9.916,11.943-15.424,22.873-14.489,9.716.83,18.647,8.745,19.659,18.184.74,6.912.677,13.92.76,20.889a11.1,11.1,0,0,1-1.242,5.252c-7.13,13.006-.649,25.713,14.023,25.817,10.03.072,16.3,5.411,22.522,11.883,7.349,7.641,19.74,7.253,24.249-1.259,1.587-3,1.809-8.627,0-11.138-4.645-6.442-6.883-12.4-3.315-19.989.768-1.633.043-4-.106-6.025-1.008-13.679,7.463-24.711,19.913-26.384,11.144-1.5,25.522,5.325,27.014,21.624.454,4.957,2.369,4.128,5.46,2.572,6.988-3.518,14.343-6.436,20.861-10.661,1.473-.955,1.357-6.984-.113-9.414-6.465-10.681-4.614-29.032,3.951-37.368,6.017-5.856,13.476-5.608,19.34-2.679,4.752,2.374,9.974,8.616,10.5,13.612.969,9.26,3.651,19.347-4.125,28.163-4.083,4.629-.339,10.843,6.353,13.063,3.6,1.193,6.99,3.454,10.645,3.936,20.015,2.64,27.813,19.828,39.431,32.491,1.461,1.592,3.182,2.945,4.782,4.409.447-2.231,1.289-4.465,1.265-6.691-.068-6.521-.661-13.037-.722-19.558-.116-12.51,6.29-21.084,17-26.681,5.94-3.1,26.483,4.262,28.489,10.747a248.94,248.94,0,0,1,7.279,30.179c1.383,7.829.186,16.229,6.482,22.624.51.518,1.083,1.554.9,2.092-3.661,10.448,6.958,12.393,10.954,18.221.767,1.119,3.241.961,4.812,1.655,3.578,1.58,8.4,2.41,10.334,5.2,3.569,5.154,5.716,1.866,6.062-.789.548-4.2.79-9.682-1.422-12.769-8.052-11.238-5.839-23.434-3.622-35.108.746-3.928,7.231-7.5,11.825-9.71,3.208-1.545,7.69-.862,11.551-.543,11.032.912,15.7,4.949,15.474,16.432-.25,12.516-2.385,25.013-4.061,37.47-.488,3.625-.9,6.279,3.858,6.277a7.489,7.489,0,0,1,1.533.305c18.729,4.05,19.461,3.748,22.912-14.478,1.739-9.183,4.165-17.484,13.431-22.064,1.537-.76,2.251-3.384,3.1-5.258.4-.885-.184-2.565.365-2.985,11.906-9.109,4.208-22.749,7.877-33.736,2.864-8.577,4.784-17.544,8.4-25.776,3.838-8.741,16.99-9.788,21.72-1.511,4.406,7.71,7.191,16.508,9.636,25.127,1.827,6.44,1.327,13.529,3.041,20.017a154.727,154.727,0,0,0,8.608,23.937c.99,2.2,4.959,3.046,7.561,4.513,1.087-2.054,3.017-4.07,3.111-6.17.351-7.807.371-15.654.013-23.464-.6-13.066,3.5-23.429,15.668-29.648.436-.223.68-.837,1.119-1.042,6.5-3.032,27.378,4.978,29.357,11.976,2.95,10.437,4.959,21.147,7.183,31.78.8,3.8.732,7.79,1.621,11.561,2.06,8.743,5.342,11.217,13.8,9.956a102.912,102.912,0,0,0,18.947-4.24c6.88-2.419,9-9.474,4.721-15.157-4.98-6.622-8.2-12.93-3.166-21.067,1.024-1.655.091-4.581-.085-6.911-.714-9.493,3.1-16.741,11.22-21.428,8.748-5.048,17.943-4.682,25.677,1.475,6.978,5.555,12.2,12.636,9.521,22.953-1.147,4.408.075,9.426-1.034,13.852-1.115,4.448-2.981,9.226-5.963,12.57-4.841,5.431-5.126,13.743,1.228,17.312,6.9,3.877,14.125,8.389,21.656,9.453,3.78.535,9.022-5.516,12.759-9.4,4.489-4.665,3.453-10.753-.255-15.043-12.541-14.508-9.473-30.667-4.845-46.469,1.31-4.471,7.213-9.806,11.757-10.634,8.1-1.476,16.861-.419,25.189.721,6.19.848,8.86,6.346,9.364,12.077,1.595,18.123,2.579,36.36-3.3,53.931-1.982,5.926-.674,7.623,4.981,7.81,5.621.187,12.663,2.762,16.387.266,2.865-1.921,1.249-10.133,2.159-15.456,2.056-12.026,4.425-24,6.72-35.981.241-1.256.626-3.368,1.306-3.526,10.715-2.493,10.521-13.686,16.087-20.245A14.866,14.866,0,0,0,581.5,1470.3c-1.551-14.724,1.886-18.415,7.521-31.67a12.691,12.691,0,0,1,13.965-7.955c7.713.982,13.147,5.5,15.094,12.913,2.7,10.29,2.665,10.756,5.2,21.1,2.323,9.468,6.8,18.884,9.678,28.2a5.574,5.574,0,0,0,3.491,3.365c10.67,1.732,12.068,10.245,13.6,18.451a101.782,101.782,0,0,1,1.54,15.564c.185,6.3.513,11.991,8.441,13.631,1.163.24,2.309,3.677,2.358,5.661.241,9.915,1.69,20.163-.261,29.684-2.808,13.7,2.4,82.306.566,95.692H69.153c1.285-5.836,2.082-67.322,4.007-72.938,1.568-4.572,4.373-8.748,6.836-12.978,3.551-6.1,7.343-12.06,10.871-18.172.37-.64-.339-1.9-.548-2.878a12.545,12.545,0,0,0-3.013,1.8c-8.9,9.575-17.692,19.247-26.589,28.823-3.146,3.388-5.965,8.277-9.867,9.5-7.054,2.214-6.427,61.723-5.188,66.838q-226.752,0-453.5.167c-6.136.009-7.138-1.671-7.063-7.329C-414.572,1642.479-414.761,1561.7-414.761,1536.405ZM47.32,1583.316c.052.338.242,1.583.433,2.828,1.181-.314,2.823-.238,3.471-1,5.523-6.523,11.428-12.835,16.038-19.974,2.547-3.944,4.47-9.887-3.914-11.206-1.128-.178-2.222-1.353-3.085-2.293-4.364-4.754-5.812-1.877-6.743,2.5C51.517,1563.575,49.517,1572.984,47.32,1583.316Zm-344.739-101.04c-2.066-3.063-3.76-5.572-5.453-8.081l-6.381,7.16,7.349,6.236Zm935.906,106.1,3.386,6.984c.918-1.668,2.883-3.61,2.534-4.948-.7-2.668-2.66-5-4.1-7.478Zm-945.911-93.665-5.632-6.9-2.932,2.514c1.857,1.615,3.655,3.308,5.618,4.782C-309.951,1495.425-308.934,1494.943-307.424,1494.709Z" transform="translate(-12.518 -565.098)"/>
    <path id="Path_13880" data-name="Path 13880" d="M-414.733,1561.8c3.591-11.676,7.774-23.217,10.513-35.09,1.306-5.666,4.3-7.692,8.987-8.852,11.085-2.742,22.131-5.689,33.305-8.011,11.656-2.421,23.053-12.746,19.448-28.146a10.959,10.959,0,0,0-2.787-5.36c-8.106-7.487-10.163-18.123-5.573-27.644.923-1.917.173-4.738-.082-7.112a37.154,37.154,0,0,1,36.078-41.273c19.122-.456,36.656,22.7,33.23,43.938-.344,2.136-.917,4.236-1.42,6.344-3.924,16.414-2.855,21.17,11.288,30.1,9.207,5.813,13.251,14.843,18.826,23.071,1.189,1.755,1.53,4.587,3.086,5.48,2.887,1.654,6.384,2.241,9.626,3.274-.311-3.173.586-7.428-1.128-9.341-10.65-11.887-4.015-25.261-2.934-37.6.79-9.02,13.378-14.451,24.37-13.3,9.976,1.048,18.473,8.429,18.489,18.409.018,11.234,3.6,22.964-5.315,33.509-4.832,5.717-.329,12.609,7.945,15.109,8.133,2.457,16.28,4.9,24.282,7.734a21.721,21.721,0,0,1,7.8,4.86,66.069,66.069,0,0,0,18.915,13.588c5.392,2.516,8.63,9.649,12.827,14.724,2.069,2.5,5.394,7.439,6,7.124,4.7-2.44,11.25-5.056,12.7-9.205,2.876-8.2.6-16.613-6.621-22.963-2.2-1.932-4.791-4.891-4.889-7.469-.431-11.348-1.407-22.967.477-34.035,2-11.766,14.171-18.3,27.141-17.193,11.529.985,22.126,10.377,23.327,21.577.878,8.2.8,16.517.9,24.786a13.172,13.172,0,0,1-1.474,6.232c-8.46,15.433-.77,30.511,16.639,30.634,11.9.085,19.339,6.421,26.724,14.1,8.72,9.067,23.423,8.606,28.773-1.494,1.883-3.555,2.147-10.237,0-13.216-5.512-7.644-8.167-14.713-3.934-23.719.911-1.938.051-4.75-.126-7.149-1.2-16.231,8.855-29.322,23.628-31.307,13.223-1.776,30.284,6.318,32.054,25.659.539,5.882,2.811,4.9,6.479,3.052,8.292-4.174,17.019-7.637,24.753-12.65,1.748-1.133,1.61-8.287-.134-11.17-7.671-12.674-5.475-34.449,4.688-44.34,7.14-6.949,15.99-6.654,22.949-3.179,5.639,2.817,11.835,10.224,12.456,16.152,1.15,10.988,4.332,22.957-4.895,33.418-4.845,5.493-.4,12.866,7.538,15.5,4.267,1.416,8.294,4.1,12.631,4.67,23.749,3.133,33,23.528,46.788,38.553,1.734,1.889,3.776,3.494,5.674,5.232.53-2.647,1.53-5.3,1.5-7.939-.081-7.738-.784-15.47-.857-23.207-.138-14.844,7.464-25.018,20.167-31.659,7.048-3.684,31.424,5.057,33.8,12.752a295.39,295.39,0,0,1,8.637,35.81c1.641,9.29.221,19.257,7.691,26.845.605.615,1.285,1.844,1.062,2.482-4.344,12.4,8.256,14.705,13,21.621.91,1.328,3.846,1.14,5.71,1.964,4.246,1.875,9.971,2.86,12.262,6.169,4.235,6.116,6.783,2.214,7.193-.936.65-4.981.937-11.489-1.687-15.151-9.554-13.335-6.928-27.806-4.3-41.659.885-4.661,8.58-8.9,14.031-11.522,3.807-1.833,9.125-1.023,13.706-.644,13.09,1.082,18.634,5.872,18.361,19.5-.3,14.851-2.83,29.68-4.819,44.461-.579,4.3-1.067,7.451,4.578,7.448a8.891,8.891,0,0,1,1.819.362c22.224,4.806,23.092,4.447,27.187-17.179,2.063-10.9,4.942-20.746,15.937-26.181,1.824-.9,2.671-4.015,3.678-6.239.476-1.05-.218-3.043.433-3.542,14.128-10.809,4.993-26.994,9.347-40.031,3.4-10.177,5.677-20.818,9.965-30.585,4.554-10.372,20.16-11.614,25.773-1.793,5.228,9.149,8.533,19.588,11.434,29.815,2.168,7.642,1.575,16.053,3.608,23.752a183.591,183.591,0,0,0,10.214,28.4c1.175,2.6,5.884,3.614,8.972,5.355,1.29-2.437,3.58-4.829,3.691-7.321.417-9.264.44-18.575.015-27.842-.711-15.5,4.154-27.8,18.591-35.18.517-.265.807-.993,1.328-1.236,7.718-3.6,32.486,5.907,34.835,14.21,3.5,12.384,5.884,25.093,8.523,37.71.943,4.51.869,9.243,1.923,13.718,2.444,10.374,6.339,13.31,16.38,11.814,7.588-1.131,15.281-2.5,22.482-5.031,8.164-2.87,10.674-11.242,5.6-17.985-5.909-7.858-9.734-15.343-3.757-25,1.215-1.964.108-5.436-.1-8.2-.847-11.264,3.677-19.865,13.313-25.426,10.38-5.99,21.291-5.556,30.468,1.75,8.28,6.592,14.481,14.994,11.3,27.236-1.361,5.23.089,11.185-1.227,16.437-1.323,5.278-3.537,10.947-7.076,14.915-5.744,6.444-6.082,16.307,1.457,20.542,8.193,4.6,16.76,9.954,25.7,11.217,4.485.635,10.705-6.545,15.14-11.156,5.327-5.535,4.1-12.759-.3-17.85-14.881-17.215-11.24-36.389-5.749-55.139,1.555-5.305,8.559-11.635,13.951-12.618,9.617-1.751,20.007-.5,29.889.855,7.345,1.006,10.513,7.53,11.111,14.33,1.893,21.5,3.06,43.144-3.916,63.994-2.352,7.032-.8,9.045,5.91,9.267,6.67.222,15.026,3.277,19.445.316,3.4-2.279,1.482-12.024,2.562-18.34,2.44-14.27,5.251-28.475,7.974-42.695.286-1.49.743-4,1.55-4.184,12.714-2.958,12.484-16.239,19.089-24.022a17.64,17.64,0,0,0,3.614-12.012c-1.84-17.471,2.238-21.851,8.924-37.579,2.863-6.735,8.912-10.416,16.571-9.439,9.152,1.165,15.6,6.531,17.91,15.322,3.208,12.21,3.162,12.763,6.173,25.032,2.756,11.235,8.072,22.407,11.484,33.467.508,1.648,2.548,3.734,4.142,3.993,12.661,2.055,14.32,12.157,16.133,21.894a120.777,120.777,0,0,1,1.827,18.468c.219,7.473.609,14.228,10.016,16.174,1.38.285,2.74,4.363,2.8,6.717.286,11.765,2.005,23.925-.31,35.223-3.332,16.256,2.85,97.663.672,113.547H159.471c1.525-6.925,2.47-79.883,4.755-86.547,1.861-5.425,5.189-10.38,8.111-15.4,4.214-7.238,8.713-14.31,12.9-21.563.439-.759-.4-2.259-.65-3.415-1.2.7-2.667,1.162-3.575,2.139-10.558,11.362-20.993,22.838-31.55,34.2-3.733,4.02-7.078,9.822-11.708,11.275-8.37,2.627-7.626,73.24-6.156,79.309q-269.06,0-538.122.2c-7.281.011-8.47-1.983-8.381-8.7C-414.509,1687.665-414.733,1591.812-414.733,1561.8Zm548.3,55.664c.062.4.287,1.878.514,3.356,1.4-.373,3.35-.282,4.119-1.191,6.553-7.74,13.56-15.23,19.03-23.7,3.022-4.68,5.3-11.732-4.644-13.3-1.338-.211-2.637-1.605-3.661-2.721-5.178-5.641-6.9-2.227-8,2.964C138.545,1594.038,136.172,1605.2,133.565,1617.463ZM-275.5,1497.57c-2.451-3.635-4.462-6.612-6.47-9.589l-7.572,8.5q4.359,3.7,8.72,7.4C-279.28,1502.052-277.74,1500.227-275.5,1497.57ZM835.034,1623.465c1.227,2.53,2.622,5.408,4.018,8.287,1.089-1.979,3.421-4.284,3.007-5.871-.825-3.166-3.156-5.938-4.866-8.873Zm-1122.4-111.141-6.683-8.182-3.479,2.983c2.2,1.916,4.337,3.925,6.666,5.674C-290.367,1513.173-289.161,1512.6-287.369,1512.323Z" transform="translate(611.91 -616.37)"/>
    <path id="Path_13879" data-name="Path 13879" d="M-414.733,1561.8c3.591-11.676,7.774-23.217,10.513-35.09,1.306-5.666,4.3-7.692,8.987-8.852,11.085-2.742,22.131-5.689,33.305-8.011,11.656-2.421,23.053-12.746,19.448-28.146a10.959,10.959,0,0,0-2.787-5.36c-8.106-7.487-10.163-18.123-5.573-27.644.923-1.917.173-4.738-.082-7.112a37.154,37.154,0,0,1,36.078-41.273c19.122-.456,36.656,22.7,33.23,43.938-.344,2.136-.917,4.236-1.42,6.344-3.924,16.414-2.855,21.17,11.288,30.1,9.207,5.813,13.251,14.843,18.826,23.071,1.189,1.755,1.53,4.587,3.086,5.48,2.887,1.654,6.384,2.241,9.626,3.274-.311-3.173.586-7.428-1.128-9.341-10.65-11.887-4.015-25.261-2.934-37.6.79-9.02,13.378-14.451,24.37-13.3,9.976,1.048,18.473,8.429,18.489,18.409.018,11.234,3.6,22.964-5.315,33.509-4.832,5.717-.329,12.609,7.945,15.109,8.133,2.457,16.28,4.9,24.282,7.734a21.721,21.721,0,0,1,7.8,4.86,66.069,66.069,0,0,0,18.915,13.588c5.392,2.516,8.63,9.649,12.827,14.724,2.069,2.5,5.394,7.439,6,7.124,4.7-2.44,11.25-5.056,12.7-9.205,2.876-8.2.6-16.613-6.621-22.963-2.2-1.932-4.791-4.891-4.889-7.469-.431-11.348-1.407-22.967.477-34.035,2-11.766,14.171-18.3,27.141-17.193,11.529.985,22.126,10.377,23.327,21.577.878,8.2.8,16.517.9,24.786a13.172,13.172,0,0,1-1.474,6.232c-8.46,15.433-.77,30.511,16.639,30.634,11.9.085,19.339,6.421,26.724,14.1,8.72,9.067,23.423,8.606,28.773-1.494,1.883-3.555,2.147-10.237,0-13.216-5.512-7.644-8.167-14.713-3.934-23.719.911-1.938.051-4.75-.126-7.149-1.2-16.231,8.855-29.322,23.628-31.307,13.223-1.776,30.284,6.318,32.054,25.659.539,5.882,2.811,4.9,6.479,3.052,8.292-4.174,17.019-7.637,24.753-12.65,1.748-1.133,1.61-8.287-.134-11.17-7.671-12.674-5.475-34.449,4.688-44.34,7.14-6.949,15.99-6.654,22.949-3.179,5.639,2.817,11.835,10.224,12.456,16.152,1.15,10.988,4.332,22.957-4.895,33.418-4.845,5.493-.4,12.866,7.538,15.5,4.267,1.416,8.294,4.1,12.631,4.67,23.749,3.133,33,23.528,46.788,38.553,1.734,1.889,3.776,3.494,5.674,5.232.53-2.647,1.53-5.3,1.5-7.939-.081-7.738-.784-15.47-.857-23.207-.138-14.844,7.464-25.018,20.167-31.659,7.048-3.684,31.424,5.057,33.8,12.752a295.39,295.39,0,0,1,8.637,35.81c1.641,9.29.221,19.257,7.691,26.845.605.615,1.285,1.844,1.062,2.482-4.344,12.4,8.256,14.705,13,21.621.91,1.328,3.846,1.14,5.71,1.964,4.246,1.875,9.971,2.86,12.262,6.169,4.235,6.116,6.783,2.214,7.193-.936.65-4.981.937-11.489-1.687-15.151-9.554-13.335-6.928-27.806-4.3-41.659.885-4.661,8.58-8.9,14.031-11.522,3.807-1.833,9.125-1.023,13.706-.644,13.09,1.082,18.634,5.872,18.361,19.5-.3,14.851-2.83,29.68-4.819,44.461-.579,4.3-1.067,7.451,4.578,7.448a8.891,8.891,0,0,1,1.819.362c22.224,4.806,23.092,4.447,27.187-17.179,2.063-10.9,4.942-20.746,15.937-26.181,1.824-.9,2.671-4.015,3.678-6.239.476-1.05-.218-3.043.433-3.542,14.128-10.809,4.993-26.994,9.347-40.031,3.4-10.177,5.677-20.818,9.965-30.585,4.554-10.372,20.16-11.614,25.773-1.793,5.228,9.149,8.533,19.588,11.434,29.815,2.168,7.642,1.575,16.053,3.608,23.752a183.591,183.591,0,0,0,10.214,28.4c1.175,2.6,5.884,3.614,8.972,5.355,1.29-2.437,3.58-4.829,3.691-7.321.417-9.264.44-18.575.015-27.842-.711-15.5,4.154-27.8,18.591-35.18.517-.265.807-.993,1.328-1.236,7.718-3.6,32.486,5.907,34.835,14.21,3.5,12.384,5.884,25.093,8.523,37.71.943,4.51.869,9.243,1.923,13.718,2.444,10.374,6.339,13.31,16.38,11.814,7.588-1.131,15.281-2.5,22.482-5.031,8.164-2.87,10.674-11.242,5.6-17.985-5.909-7.858-9.734-15.343-3.757-25,1.215-1.964.108-5.436-.1-8.2-.847-11.264,3.677-19.865,13.313-25.426,10.38-5.99,21.291-5.556,30.468,1.75,8.28,6.592,14.481,14.994,11.3,27.236-1.361,5.23.089,11.185-1.227,16.437-1.323,5.278-3.537,10.947-7.076,14.915-5.744,6.444-6.082,16.307,1.457,20.542,8.193,4.6,16.76,9.954,25.7,11.217,4.485.635,10.705-6.545,15.14-11.156,5.327-5.535,4.1-12.759-.3-17.85-14.881-17.215-11.24-36.389-5.749-55.139,1.555-5.305,8.559-11.635,13.951-12.618,9.617-1.751,20.007-.5,29.889.855,7.345,1.006,10.513,7.53,11.111,14.33,1.893,21.5,3.06,43.144-3.916,63.994-2.352,7.032-.8,9.045,5.91,9.267,6.67.222,15.026,3.277,19.445.316,3.4-2.279,1.482-12.024,2.562-18.34,2.44-14.27,5.251-28.475,7.974-42.695.286-1.49.743-4,1.55-4.184,12.714-2.958,12.484-16.239,19.089-24.022a17.64,17.64,0,0,0,3.614-12.012c-1.84-17.471,2.238-21.851,8.924-37.579,2.863-6.735,8.912-10.416,16.571-9.439,9.152,1.165,15.6,6.531,17.91,15.322,3.208,12.21,3.162,12.763,6.173,25.032,2.756,11.235,8.072,22.407,11.484,33.467.508,1.648,2.548,3.734,4.142,3.993,12.661,2.055,14.32,12.157,16.133,21.894a120.777,120.777,0,0,1,1.827,18.468c.219,7.473.609,14.228,10.016,16.174,1.38.285,2.74,4.363,2.8,6.717.286,11.765,2.005,23.925-.31,35.223-3.332,16.256,2.85,97.663.672,113.547H159.471c1.525-6.925,2.47-79.883,4.755-86.547,1.861-5.425,5.189-10.38,8.111-15.4,4.214-7.238,8.713-14.31,12.9-21.563.439-.759-.4-2.259-.65-3.415-1.2.7-2.667,1.162-3.575,2.139-10.558,11.362-20.993,22.838-31.55,34.2-3.733,4.02-7.078,9.822-11.708,11.275-8.37,2.627-7.626,73.24-6.156,79.309q-269.06,0-538.122.2c-7.281.011-8.47-1.983-8.381-8.7C-414.509,1687.665-414.733,1591.812-414.733,1561.8Zm548.3,55.664c.062.4.287,1.878.514,3.356,1.4-.373,3.35-.282,4.119-1.191,6.553-7.74,13.56-15.23,19.03-23.7,3.022-4.68,5.3-11.732-4.644-13.3-1.338-.211-2.637-1.605-3.661-2.721-5.178-5.641-6.9-2.227-8,2.964C138.545,1594.038,136.172,1605.2,133.565,1617.463ZM-275.5,1497.57c-2.451-3.635-4.462-6.612-6.47-9.589l-7.572,8.5q4.359,3.7,8.72,7.4C-279.28,1502.052-277.74,1500.227-275.5,1497.57ZM835.034,1623.465c1.227,2.53,2.622,5.408,4.018,8.287,1.089-1.979,3.421-4.284,3.007-5.871-.825-3.166-3.156-5.938-4.866-8.873Zm-1122.4-111.141-6.683-8.182-3.479,2.983c2.2,1.916,4.337,3.925,6.666,5.674C-290.367,1513.173-289.161,1512.6-287.369,1512.323Z" transform="translate(-140.09 -616.37)" stroke="#707070" stroke-width="1"/>
    <path id="Path_13878" data-name="Path 13878" d="M-414.733,1561.8c3.591-11.676,7.774-23.217,10.513-35.09,1.306-5.666,4.3-7.692,8.987-8.852,11.085-2.742,22.131-5.689,33.305-8.011,11.656-2.421,23.053-12.746,19.448-28.146a10.959,10.959,0,0,0-2.787-5.36c-8.106-7.487-10.163-18.123-5.573-27.644.923-1.917.173-4.738-.082-7.112a37.154,37.154,0,0,1,36.078-41.273c19.122-.456,36.656,22.7,33.23,43.938-.344,2.136-.917,4.236-1.42,6.344-3.924,16.414-2.855,21.17,11.288,30.1,9.207,5.813,13.251,14.843,18.826,23.071,1.189,1.755,1.53,4.587,3.086,5.48,2.887,1.654,6.384,2.241,9.626,3.274-.311-3.173.586-7.428-1.128-9.341-10.65-11.887-4.015-25.261-2.934-37.6.79-9.02,13.378-14.451,24.37-13.3,9.976,1.048,18.473,8.429,18.489,18.409.018,11.234,3.6,22.964-5.315,33.509-4.832,5.717-.329,12.609,7.945,15.109,8.133,2.457,16.28,4.9,24.282,7.734a21.721,21.721,0,0,1,7.8,4.86,66.069,66.069,0,0,0,18.915,13.588c5.392,2.516,8.63,9.649,12.827,14.724,2.069,2.5,5.394,7.439,6,7.124,4.7-2.44,11.25-5.056,12.7-9.205,2.876-8.2.6-16.613-6.621-22.963-2.2-1.932-4.791-4.891-4.889-7.469-.431-11.348-1.407-22.967.477-34.035,2-11.766,14.171-18.3,27.141-17.193,11.529.985,22.126,10.377,23.327,21.577.878,8.2.8,16.517.9,24.786a13.172,13.172,0,0,1-1.474,6.232c-8.46,15.433-.77,30.511,16.639,30.634,11.9.085,19.339,6.421,26.724,14.1,8.72,9.067,23.423,8.606,28.773-1.494,1.883-3.555,2.147-10.237,0-13.216-5.512-7.644-8.167-14.713-3.934-23.719.911-1.938.051-4.75-.126-7.149-1.2-16.231,8.855-29.322,23.628-31.307,13.223-1.776,30.284,6.318,32.054,25.659.539,5.882,2.811,4.9,6.479,3.052,8.292-4.174,17.019-7.637,24.753-12.65,1.748-1.133,1.61-8.287-.134-11.17-7.671-12.674-5.475-34.449,4.688-44.34,7.14-6.949,15.99-6.654,22.949-3.179,5.639,2.817,11.835,10.224,12.456,16.152,1.15,10.988,4.332,22.957-4.895,33.418-4.845,5.493-.4,12.866,7.538,15.5,4.267,1.416,8.294,4.1,12.631,4.67,23.749,3.133,33,23.528,46.788,38.553,1.734,1.889,3.776,3.494,5.674,5.232.53-2.647,1.53-5.3,1.5-7.939-.081-7.738-.784-15.47-.857-23.207-.138-14.844,7.464-25.018,20.167-31.659,7.048-3.684,31.424,5.057,33.8,12.752a295.39,295.39,0,0,1,8.637,35.81c1.641,9.29.221,19.257,7.691,26.845.605.615,1.285,1.844,1.062,2.482-4.344,12.4,8.256,14.705,13,21.621.91,1.328,3.846,1.14,5.71,1.964,4.246,1.875,9.971,2.86,12.262,6.169,4.235,6.116,6.783,2.214,7.193-.936.65-4.981.937-11.489-1.687-15.151-9.554-13.335-6.928-27.806-4.3-41.659.885-4.661,8.58-8.9,14.031-11.522,3.807-1.833,9.125-1.023,13.706-.644,13.09,1.082,18.634,5.872,18.361,19.5-.3,14.851-2.83,29.68-4.819,44.461-.579,4.3-1.067,7.451,4.578,7.448a8.891,8.891,0,0,1,1.819.362c22.224,4.806,23.092,4.447,27.187-17.179,2.063-10.9,4.942-20.746,15.937-26.181,1.824-.9,2.671-4.015,3.678-6.239.476-1.05-.218-3.043.433-3.542,14.128-10.809,4.993-26.994,9.347-40.031,3.4-10.177,5.677-20.818,9.965-30.585,4.554-10.372,20.16-11.614,25.773-1.793,5.228,9.149,8.533,19.588,11.434,29.815,2.168,7.642,1.575,16.053,3.608,23.752a183.591,183.591,0,0,0,10.214,28.4c1.175,2.6,5.884,3.614,8.972,5.355,1.29-2.437,3.58-4.829,3.691-7.321.417-9.264.44-18.575.015-27.842-.711-15.5,4.154-27.8,18.591-35.18.517-.265.807-.993,1.328-1.236,7.718-3.6,32.486,5.907,34.835,14.21,3.5,12.384,5.884,25.093,8.523,37.71.943,4.51.869,9.243,1.923,13.718,2.444,10.374,6.339,13.31,16.38,11.814,7.588-1.131,15.281-2.5,22.482-5.031,8.164-2.87,10.674-11.242,5.6-17.985-5.909-7.858-9.734-15.343-3.757-25,1.215-1.964.108-5.436-.1-8.2-.847-11.264,3.677-19.865,13.313-25.426,10.38-5.99,21.291-5.556,30.468,1.75,8.28,6.592,14.481,14.994,11.3,27.236-1.361,5.23.089,11.185-1.227,16.437-1.323,5.278-3.537,10.947-7.076,14.915-5.744,6.444-6.082,16.307,1.457,20.542,8.193,4.6,16.76,9.954,25.7,11.217,4.485.635,10.705-6.545,15.14-11.156,5.327-5.535,4.1-12.759-.3-17.85-14.881-17.215-11.24-36.389-5.749-55.139,1.555-5.305,8.559-11.635,13.951-12.618,9.617-1.751,20.007-.5,29.889.855,7.345,1.006,10.513,7.53,11.111,14.33,1.893,21.5,3.06,43.144-3.916,63.994-2.352,7.032-.8,9.045,5.91,9.267,6.67.222,15.026,3.277,19.445.316,3.4-2.279,1.482-12.024,2.562-18.34,2.44-14.27,5.251-28.475,7.974-42.695.286-1.49.743-4,1.55-4.184,12.714-2.958,12.484-16.239,19.089-24.022a17.64,17.64,0,0,0,3.614-12.012c-1.84-17.471,2.238-21.851,8.924-37.579,2.863-6.735,8.912-10.416,16.571-9.439,9.152,1.165,15.6,6.531,17.91,15.322,3.208,12.21,3.162,12.763,6.173,25.032,2.756,11.235,8.072,22.407,11.484,33.467.508,1.648,2.548,3.734,4.142,3.993,12.661,2.055,14.32,12.157,16.133,21.894a120.777,120.777,0,0,1,1.827,18.468c.219,7.473.609,14.228,10.016,16.174,1.38.285,2.74,4.363,2.8,6.717.286,11.765,2.005,23.925-.31,35.223-3.332,16.256,2.85,97.663.672,113.547H159.471c1.525-6.925,2.47-79.883,4.755-86.547,1.861-5.425,5.189-10.38,8.111-15.4,4.214-7.238,8.713-14.31,12.9-21.563.439-.759-.4-2.259-.65-3.415-1.2.7-2.667,1.162-3.575,2.139-10.558,11.362-20.993,22.838-31.55,34.2-3.733,4.02-7.078,9.822-11.708,11.275-8.37,2.627-7.626,73.24-6.156,79.309q-269.06,0-538.122.2c-7.281.011-8.47-1.983-8.381-8.7C-414.509,1687.665-414.733,1591.812-414.733,1561.8Zm548.3,55.664c.062.4.287,1.878.514,3.356,1.4-.373,3.35-.282,4.119-1.191,6.553-7.74,13.56-15.23,19.03-23.7,3.022-4.68,5.3-11.732-4.644-13.3-1.338-.211-2.637-1.605-3.661-2.721-5.178-5.641-6.9-2.227-8,2.964C138.545,1594.038,136.172,1605.2,133.565,1617.463ZM-275.5,1497.57c-2.451-3.635-4.462-6.612-6.47-9.589l-7.572,8.5q4.359,3.7,8.72,7.4C-279.28,1502.052-277.74,1500.227-275.5,1497.57ZM835.034,1623.465c1.227,2.53,2.622,5.408,4.018,8.287,1.089-1.979,3.421-4.284,3.007-5.871-.825-3.166-3.156-5.938-4.866-8.873Zm-1122.4-111.141-6.683-8.182-3.479,2.983c2.2,1.916,4.337,3.925,6.666,5.674C-290.367,1513.173-289.161,1512.6-287.369,1512.323Z" transform="translate(1094.95 -616.37)" stroke="#707070" stroke-width="1"/>
  </g>
</svg>
