<svg xmlns="http://www.w3.org/2000/svg" xmlns:xlink="http://www.w3.org/1999/xlink" width="92" height="92" viewBox="0 0 92 92">
  <defs>
    <linearGradient id="linear-gradient" x1="0.5" y1="1" x2="0.5" gradientUnits="objectBoundingBox">
      <stop offset="0" stop-color="#e7e7e7"/>
      <stop offset="1" stop-color="#9aa7b1"/>
    </linearGradient>
    <filter id="Rectangle_2272">
      <feOffset dy="3" input="SourceAlpha"/>
      <feGaussianBlur stdDeviation="3" result="blur"/>
      <feFlood flood-opacity="0.161" result="color"/>
      <feComposite operator="out" in="SourceGraphic" in2="blur"/>
      <feComposite operator="in" in="color"/>
      <feComposite operator="in" in2="SourceGraphic"/>
    </filter>
    <linearGradient id="linear-gradient-2" x1="0.5" x2="0.5" y2="1" gradientUnits="objectBoundingBox">
      <stop offset="0" stop-color="#fff"/>
      <stop offset="1" stop-color="#959595"/>
    </linearGradient>
  </defs>
  <g id="next-bg" transform="translate(-1758 -958)">
    <g id="Group_1641" data-name="Group 1641" transform="translate(-2849 -2079)">
      <g data-type="innerShadowGroup">
        <rect id="Rectangle_2272-2" data-name="Rectangle 2272" width="90" height="90" rx="45" transform="translate(4608 3038)" fill="url(#linear-gradient)"/>
        <g transform="matrix(1, 0, 0, 1, 4607, 3037)" filter="url(#Rectangle_2272)">
          <rect id="Rectangle_2272-3" data-name="Rectangle 2272" width="90" height="90" rx="45" transform="translate(1 1)" fill="#fff"/>
        </g>
      </g>
      <path id="Path_1648" data-name="Path 1648" d="M45-1A46.012,46.012,0,0,1,62.906,87.385,46.012,46.012,0,0,1,27.094,2.615,45.713,45.713,0,0,1,45-1Zm0,90A44,44,0,1,0,1,45,44.05,44.05,0,0,0,45,89Z" transform="translate(4608 3038)" fill="url(#linear-gradient-2)"/>
    </g>
  </g>
</svg>
